# xmcd CD database file
#
# Track frame offsets:
#	150
#	21908
#	36819
#
# Disc length: 764 seconds
#
# Revision: 3
# Processed by: cddbd v1.5.2PL0 Copyright (c) Steve Scherf et al.
# Submitted via: jetAudio 5
#
DISCID=1c02fa03
DTITLE=Scala and Kolacny Brothers - Respire (bonus)
DYEAR=1900
DGENRE=
TTITLE0=Evigheden
TTITLE1=Mon Bonhomme
TTITLE2=Engel
EXTD=
EXTT0=
EXTT1=
EXTT2=
PLAYORDER=
